<svg height="512pt" viewBox="-51 0 512 512.00253" width="512pt" xmlns="http://www.w3.org/2000/svg"><path d="m179.722656 393.898438-42.410156 104.277343c-1.417969 3.375-4.816406 5.480469-8.46875 5.25s-6.761719-2.746093-7.742188-6.273437l-13.996093-52.222656c-1.160157-4.382813-4.015625-8.121094-7.941407-10.394532-3.921874-2.273437-8.585937-2.894531-12.964843-1.722656l-52.222657 13.996094c-3.546874.957031-7.304687-.457032-9.339843-3.515625-2.03125-3.058594-1.878907-7.074219.378906-9.96875l62.207031-80.042969c4.007813 9.074219 10.828125 16.613281 19.457032 21.503906 20.5625 11.777344 45.226562 6.570313 55.464843-10.835937.417969 12.3125 7.03125 23.582031 17.578125 29.949219zm0 0" fill="#d4e1f4"/><path d="m373.261719 446.808594-52.226563-13.996094c-4.378906-1.171875-9.042968-.550781-12.964844 1.722656-3.921874 2.273438-6.78125 6.011719-7.941406 10.394532l-13.996094 52.222656c-.980468 3.527344-4.089843 6.042968-7.742187 6.273437s-7.050781-1.875-8.46875-5.25l-41.984375-103.082031c11.578125-6.179688 19.015625-18.03125 19.542969-31.144531 10.238281 17.40625 34.898437 22.613281 55.464843 10.835937 7.957032-4.550781 14.398438-11.347656 18.515626-19.539062l60.757812 78.078125c2.257812 2.894531 2.410156 6.910156.378906 9.96875-2.035156 3.058593-5.792968 4.472656-9.335937 3.515625zm0 0" fill="#d4e1f4"/><path d="m401.078125 204.714844v.171875c1.253906 21.921875-15.230469 40.832031-37.121094 42.582031 11.023438 6.960938 17.546875 19.226562 17.152344 32.253906-.015625 8.160156-2.195313 16.167969-6.3125 23.210938-9.195313 17.945312-30.066406 26.554687-49.238281 20.3125-1.476563-.53125-2.902344-1.191406-4.265625-1.964844.511719.9375 1.023437 1.878906 1.449219 2.816406 1.9375 4.347656 2.929687 9.0625 2.902343 13.824219-.046875 6.019531-1.480469 11.945313-4.183593 17.324219-4.117188 8.191406-10.558594 14.988281-18.515626 19.539062-10.765624 6.441406-23.757812 8.023438-35.753906 4.351563-8.261718-2.378907-15.308594-7.808594-19.710937-15.1875-.113281 5.492187-1.546875 10.878906-4.183594 15.699219-3.558594 6.496093-8.886719 11.851562-15.359375 15.445312-7.03125 3.957031-14.972656 6.015625-23.039062 5.976562h-.171876c-4.269531.011719-8.519531-.5625-12.628906-1.707031-4.390625-1.152343-8.566406-2.996093-12.375-5.464843-10.546875-6.367188-17.160156-17.636719-17.578125-29.949219-4.765625 7.875-12.472656 13.523437-21.417969 15.699219-7.851562 2.089843-16.136718 1.910156-23.894531-.511719-3.535156-1.070313-6.941406-2.527344-10.152343-4.351563-8.628907-4.890625-15.449219-12.429687-19.457032-21.503906-2.117187-4.84375-3.21875-10.070312-3.242187-15.359375-.058594-5.835937 1.445312-11.578125 4.351562-16.640625-8.261719 4.574219-18.027343 5.589844-27.050781 2.816406-.9375-.257812-1.878906-.511718-2.816406-.851562-17.945313-7.015625-29.808594-24.253906-29.953125-43.523438-.390625-13.027344 6.132812-25.292968 17.152343-32.253906-21.886718-1.75-38.371093-20.660156-37.117187-42.582031v-.171875c-1.253906-21.921875 15.230469-40.832032 37.117187-42.578125-17.40625-10.242188-22.613281-34.902344-10.835937-55.46875 5.308594-9.371094 13.730469-16.585938 23.808594-20.394531.9375-.253907 1.875-.597657 2.730469-.851563 3.359374-.941406 6.832031-1.429687 10.324218-1.453125 5.835938-.054688 11.582032 1.445312 16.640625 4.351562-9.984375-17.578124-2.21875-41.640624 18.347657-53.503906 3.175781-1.835937 6.554687-3.296875 10.066406-4.351562 4.257812-1.316406 8.6875-1.980469 13.144531-1.960938 3.660156.003906 7.304687.492188 10.835937 1.449219 8.917969 2.230469 16.605469 7.867187 21.417969 15.703125.980469-17.132812 13.148438-31.558594 29.867188-35.414062 4.140625-1.140626 8.417969-1.714844 12.714843-1.707032h.171876c15.75-.410156 30.472656 7.800782 38.398437 21.417969 2.664063 4.8125 4.101563 10.203125 4.183594 15.703125 4.457031-7.371094 11.523437-12.792969 19.796875-15.191406 4.011718-1.347656 8.222656-2.011719 12.457031-1.960938 8.160156.019532 16.167969 2.195313 23.210937 6.3125 18.496094 9.390625 26.980469 31.179688 19.710938 50.605469-.382812.996094-.839844 1.96875-1.363281 2.898437 1.363281-.765624 2.730469-1.449218 4.09375-2.046874 4.007812-1.527344 8.257812-2.308594 12.546875-2.304688 15.433594.523438 29.449218 9.152344 36.863281 22.699219 11.773437 20.566406 6.570313 45.226562-10.839844 55.46875 21.890625 1.746093 38.375 20.65625 37.121094 42.578125zm0 0" fill="#d4e1f4"/><path d="m375.480469 204.714844v.171875c1.25 21.921875-15.234375 40.832031-37.121094 42.582031 11.019531 6.960938 17.542969 19.226562 17.152344 32.253906-.144531 19.269532-12.007813 36.507813-29.953125 43.523438-.9375.339844-1.878906.59375-2.816406.851562-9.023438 2.773438-18.789063 1.757813-27.050782-2.816406 2.90625 5.0625 4.410156 10.804688 4.351563 16.640625-.046875 6.019531-1.476563 11.945313-4.179688 17.324219-4.117187 8.191406-10.558593 14.988281-18.519531 19.539062-3.210938 1.824219-6.617188 3.28125-10.152344 4.351563-8.261718-2.378907-15.308594-7.808594-19.710937-15.1875-.113281 5.492187-1.546875 10.878906-4.183594 15.699219-8.941406-2.175782-16.652344-7.824219-21.417969-15.699219-.527344 13.113281-7.964844 24.964843-19.542968 31.144531-3.226563 1.835938-6.664063 3.269531-10.238282 4.269531-4.390625-1.152343-8.566406-2.996093-12.375-5.464843-10.546875-6.367188-17.160156-17.636719-17.578125-29.949219-4.765625 7.875-12.472656 13.523437-21.417969 15.699219-2.664062-4.808594-4.097656-10.203126-4.179687-15.699219-4.40625 7.378906-11.453125 12.808593-19.714844 15.1875-3.535156-1.070313-6.941406-2.527344-10.152343-4.351563-8.628907-4.890625-15.449219-12.429687-19.457032-21.503906-2.117187-4.84375-3.21875-10.070312-3.242187-15.359375-.058594-5.835937 1.445312-11.578125 4.351562-16.640625-8.261719 4.574219-18.027343 5.589844-27.050781 2.816406.425781-.9375.9375-1.878906 1.449219-2.816406-1.363281.773438-2.789063 1.433594-4.265625 1.964844-17.945313-7.015625-29.808594-24.253906-29.953125-43.523438-.390625-13.027344 6.132812-25.292968 17.152343-32.253906-21.886718-1.75-38.371093-20.660156-37.117187-42.582031v-.171875c-1.253906-21.921875 15.230469-40.832032 37.117187-42.578125-17.40625-10.242188-22.613281-34.902344-10.835937-55.46875 5.308594-9.371094 13.730469-16.585938 23.808594-20.394531 1.363281.597656 2.730469 1.28125 4.09375 2.046874-.539063-.921874-.996094-1.894531-1.363281-2.898437 3.359374-.941406 6.832031-1.429687 10.324218-1.453125 5.835938-.054688 11.582032 1.445312 16.640625 4.351562-9.984375-17.578124-2.21875-41.640624 18.347657-53.503906 3.175781-1.835937 6.554687-3.296875 10.066406-4.351562 8.273437 2.398437 15.339844 7.820312 19.800781 15.191406.082031-5.5 1.515625-10.890625 4.179687-15.703125 8.917969 2.230469 16.605469 7.867187 21.417969 15.703125.980469-17.132812 13.148438-31.558594 29.867188-35.414062 16.71875 3.855468 28.886719 18.28125 29.867187 35.414062 4.8125-7.835938 12.5-13.472656 21.417969-15.703125 2.664063 4.8125 4.101563 10.203125 4.183594 15.703125 4.457031-7.371094 11.523437-12.792969 19.796875-15.191406 3.511718 1.054687 6.890625 2.515625 10.066406 4.351562 20.566406 11.863282 28.332031 35.925782 18.347656 53.503906 5.0625-2.90625 10.804688-4.40625 16.640625-4.351562 3.492188.023438 6.964844.511719 10.324219 1.453125.855469.253906 1.792969.597656 2.730469.851563 10.078125 3.808593 18.5 11.023437 23.808593 20.394531 11.777344 20.566406 6.570313 45.226562-10.835937 55.46875 21.886719 1.746093 38.371094 20.65625 37.121094 42.578125zm0 0" fill="#e3e7f2"/><path d="m332.8125 204.800781c-.023438 70.683594-57.316406 127.976563-128 128-4.191406.035157-8.382812-.195312-12.542969-.683593-.171875 0-.34375.085937-.511719 0-65.234374-6.761719-114.800781-61.734376-114.800781-127.316407s49.566407-120.550781 114.800781-127.316406c.167969-.085937.339844 0 .511719 0 4.160157-.488281 8.351563-.714844 12.542969-.683594 70.683594.023438 127.976562 57.316407 128 128zm0 0" fill="#a4c2f7"/><path d="m307.210938 204.800781c-.054688 65.613281-49.675782 120.578125-114.941407 127.316407-.171875 0-.34375.085937-.511719 0-65.234374-6.761719-114.800781-61.734376-114.800781-127.316407s49.566407-120.550781 114.800781-127.316406c.167969-.085937.339844 0 .511719 0 65.265625 6.738281 114.886719 61.703125 114.941407 127.316406zm0 0" fill="#d4e1f4"/><g fill="#fff"><path d="m33.976562 446.808594 15.957032-4.269532c-1.648438-2.925781-1.378906-6.554687.679687-9.207031l62.210938-80.042969c-2.117188-4.84375-3.222657-10.070312-3.246094-15.359374-.054687-5.835938 1.449219-11.578126 4.355469-16.640626-8.242188 4.566407-17.984375 5.585938-26.992188 2.824219-1.960937 4.339844-2.972656 9.046875-2.960937 13.808594.023437 5.289063 1.125 10.515625 3.242187 15.359375l-62.207031 80.042969c-2.257813 2.894531-2.410156 6.910156-.378906 9.96875 2.035156 3.058593 5.792969 4.472656 9.339843 3.515625zm0 0"/><path d="m141.195312 378.683594c-.714843-.230469-1.433593-.5-2.148437-.773438.714844.273438 1.421875.535156 2.148437.773438zm0 0"/><path d="m158.246094 380.902344c-.980469.070312-1.953125.15625-2.945313.15625 1 0 1.964844-.09375 2.945313-.15625zm0 0"/><path d="m187.746094 45.65625c.980468-17.132812 13.148437-31.558594 29.867187-35.414062-4.144531-1.136719-8.421875-1.710938-12.714843-1.707032h-.171876c-4.296874-.007812-8.574218.566406-12.714843 1.707032-10.863281 2.820312-20.109375 9.945312-25.601563 19.738281 8.886719 2.242187 16.539063 7.867187 21.335938 15.675781zm0 0"/><path d="m97.292969 83.96875c5.835937-.054688 11.578125 1.445312 16.640625 4.351562-9.984375-17.578124-2.21875-41.640624 18.34375-53.503906 3.148437-1.800781 6.492187-3.234375 9.96875-4.265625-.519532-.160156-.992188-.417969-1.519532-.554687-3.53125-.960938-7.175781-1.445313-10.835937-1.449219-4.457031-.019531-8.886719.644531-13.144531 1.960937-3.511719 1.054688-6.890625 2.515626-10.066406 4.351563-18.445313 9.425781-26.886719 31.179687-19.628907 50.578125 3.335938-.9375 6.777344-1.433594 10.242188-1.46875zm0 0"/><path d="m45.664062 247.46875c-11.019531 6.960938-17.542968 19.226562-17.152343 32.253906.144531 19.269532 12.007812 36.507813 29.953125 43.523438.9375.339844 1.878906.59375 2.816406.851562 7.449219 2.203125 15.417969 1.882813 22.664062-.914062-17.898437-7.027344-29.722656-24.230469-29.867187-43.460938-.382813-13.035156 6.152344-25.300781 17.1875-32.253906-21.886719-1.75-38.371094-20.660156-37.121094-42.582031v-.171875c-1.25-21.921875 15.234375-40.832032 37.121094-42.578125-17.410156-10.242188-22.613281-34.902344-10.835937-55.46875 5.296874-9.347657 13.691406-16.546875 23.738281-20.359375-3.972657-1.566406-8.207031-2.359375-12.476563-2.339844-3.492187.023438-6.964844.511719-10.324218 1.453125-.855469.253906-1.792969.597656-2.730469.851563-10.078125 3.808593-18.5 11.023437-23.808594 20.394531-11.777344 20.566406-6.570313 45.226562 10.835937 55.46875-21.886718 1.746093-38.371093 20.65625-37.117187 42.578125v.171875c-1.253906 21.921875 15.230469 40.832031 37.117187 42.582031zm0 0"/><path d="m107.105469 444.929688 13.996093 52.222656c.980469 3.527344 4.089844 6.042968 7.742188 6.273437s7.050781-1.875 8.46875-5.25l5.820312-14.316406-10.425781-38.929687c-1.164062-4.382813-4.019531-8.121094-7.941406-10.394532-3.921875-2.273437-8.585937-2.894531-12.96875-1.722656l-10.945313 2.933594c3.070313 2.261718 5.273438 5.5 6.253907 9.183594zm0 0"/><path d="m146.785156 380.136719c.570313.109375 1.144532.296875 1.707032.390625-.605469-.09375-1.179688-.28125-1.707032-.390625zm0 0"/></g><path d="m28.460938 252.042969c-5.628907 8.121093-8.59375 17.796875-8.480469 27.679687.03125 9.65625 2.601562 19.132813 7.457031 27.480469 9.546875 17.472656 28.300781 27.890625 48.179688 26.757813-.109376 1.308593-.171876 2.628906-.171876 3.960937.007813 4.695313.730469 9.363281 2.144532 13.839844l-59.316406 76.324219v.042968c-4.464844 5.792969-4.738282 13.789063-.683594 19.875 4.054687 6.089844 11.535156 8.914063 18.601562 7.027344l52.175782-13.976562c2.210937-.597657 4.570312-.292969 6.550781.855468 1.96875 1.121094 3.394531 3 3.953125 5.195313l14.011718 52.25c1.855469 7.070312 8.058594 12.140625 15.359376 12.550781h1.210937c6.933594.027344 13.183594-4.160156 15.796875-10.578125l38.953125-95.789063c12.515625 5.035157 26.441406 5.320313 39.152344.792969l38.628906 95.078125c2.574219 6.453125 8.851563 10.660156 15.796875 10.589844h1.125c7.378906-.363281 13.660156-5.484375 15.503906-12.636719l14.011719-52.265625c1.21875-4.546875 5.886719-7.25 10.4375-6.042968l52.199219 13.988281c7.085937 1.914062 14.601562-.917969 18.664062-7.027344 4.0625-6.113281 3.761719-14.136719-.746094-19.929687l-57.699218-74.121094c1.910156-5.132813 2.890625-10.566406 2.898437-16.042969 0-1.332031-.058593-2.652344-.167969-3.960937 19.871094 1.113281 38.617188-9.296876 48.167969-26.757813 4.863281-8.347656 7.4375-17.828125 7.46875-27.488281.109375-9.882813-2.855469-19.554688-8.484375-27.679688 17.5-9.265625 28.445313-27.441406 28.445313-47.242187s-10.945313-37.976563-28.445313-47.242188c10.882813-16.667969 11.273438-38.09375 1.007813-55.148437-9.59375-17.4375-28.324219-27.835938-48.195313-26.761719 1.117188-19.882813-9.292968-38.636719-26.761718-48.203125-17.121094-10.054688-38.433594-9.664062-55.175782 1.015625-9.257812-17.503906-27.4375-28.453125-47.242187-28.453125-19.800781 0-37.980469 10.949219-47.238281 28.453125-16.730469-10.667969-38.027344-11.066406-55.144532-1.023437-17.460937 9.5625-27.871094 28.308593-26.757812 48.1875-19.890625-1.097657-38.648438 9.320312-48.230469 26.785156-10.261719 17.054687-9.863281 38.476562 1.023437 55.140625-17.5 9.261719-28.445312 27.4375-28.445312 47.238281 0 19.796875 10.945312 37.972656 28.445312 47.234375zm100.882812 242.890625-13.976562-52.171875c-1.738282-6.582031-6.023438-12.199219-11.910157-15.617188-5.886719-3.414062-12.894531-4.34375-19.46875-2.582031l-52.25 14.050781v-.050781l54.691407-70.375c4.390624 5.640625 9.816406 10.390625 15.980468 14.003906 17.039063 10.257813 38.4375 9.871094 55.09375-.996094 2.78125 5.988282 6.820313 11.308594 11.835938 15.605469zm246.136719-56.320313-52.277344-14.011719c-6.558594-1.753906-13.546875-.832031-19.429687 2.566407-5.878907 3.398437-10.167969 8.992187-11.921876 15.550781l-14.027343 52.214844-39.375-96.648438c5.847656-4.519531 10.527343-10.371094 13.65625-17.066406 16.683593 10.878906 38.121093 11.253906 55.175781.964844 5.578125-3.242188 10.566406-7.40625 14.753906-12.3125l53.554688 68.742187zm-329.679688-267.945312c3.824219-.0625 7.136719-2.664063 8.109375-6.359375.976563-3.699219-.628906-7.59375-3.925781-9.527344-13.550781-7.980469-17.066406-27.660156-7.785156-43.820312 5.886719-10.925782 17.09375-17.941407 29.492187-18.457032 4.324219-.0625 8.585938 1.039063 12.339844 3.191406 3.332031 1.941407 7.554688 1.40625 10.296875-1.304687 2.742187-2.714844 3.324219-6.929687 1.417969-10.285156-7.839844-13.753907-1.015625-32.554688 15.199218-41.90625 5.75-3.359375 12.285157-5.140625 18.945313-5.164063 10.023437-.382812 19.503906 4.554688 24.933594 12.988282 1.953125 3.269531 5.839843 4.847656 9.519531 3.867187s6.265625-4.28125 6.335938-8.089844c1.804687-17.230469 16.933593-29.933593 34.21875-28.730469 17.226562-1.136718 32.265624 11.554688 34.046874 28.730469.050782 3.816407 2.628907 7.132813 6.316407 8.125 3.683593.992188 7.578125-.585937 9.539062-3.859375 5.417969-8.449218 14.902344-13.40625 24.933594-13.03125 6.660156.027344 13.195313 1.8125 18.945313 5.171875 16.210937 9.386719 23.039062 28.160157 15.195312 41.898438-1.90625 3.355469-1.324219 7.570312 1.421875 10.285156 2.742187 2.710937 6.960937 3.246094 10.296875 1.304687 3.75-2.152343 8.011719-3.253906 12.339844-3.191406 12.382812.515625 23.578125 7.519532 29.457031 18.429688 9.28125 16.214844 5.800781 35.894531-7.75 43.871094-3.269531 1.949218-4.855469 5.828124-3.886719 9.507812.972656 3.679688 4.261719 6.273438 8.066406 6.355469 17.230469 1.8125 29.925782 16.9375 28.726563 34.21875 1.132813 17.226562-11.554687 32.265625-28.726563 34.046875-3.820312.046875-7.144531 2.628906-8.136718 6.316406-.992188 3.691406.589844 7.59375 3.871094 9.546875 8.449218 5.417969 13.402343 14.898437 13.023437 24.925781-.027344 6.660156-1.8125 13.195313-5.171875 18.945313-9.34375 16.214843-28.160156 23.039062-41.890625 15.191406-3.355469-1.914063-7.574219-1.335937-10.292969 1.40625-2.71875 2.746094-3.25 6.972656-1.304687 10.308594 2.148437 3.757812 3.253906 8.019531 3.191406 12.347656-.039063 4.710937-1.167969 9.347656-3.300781 13.550781-3.363282 6.679688-8.628906 12.214844-15.128906 15.90625-16.214844 9.277344-35.910157 5.785156-43.871094-7.757812-1.945313-3.265625-5.816406-4.851563-9.496094-3.890625-3.675781.964843-6.273438 4.246093-6.367188 8.046875-.476562 10.105468-6.273437 19.199218-15.230468 23.894531-12.378906 6.675781-27.363282 6.304687-39.390625-.980469-8.109375-4.839844-13.238281-13.429687-13.644531-22.863281-.054688-3.828125-2.648438-7.152344-6.347657-8.132813-3.703125-.976562-7.601562.625-9.542969 3.925782-7.976562 13.558594-27.648437 17.066406-43.835937 7.785156-7.03125-4.003906-12.601563-10.148438-15.898437-17.539062-1.660157-3.765626-2.53125-7.832032-2.558594-11.945313-.058594-4.328125 1.042968-8.589844 3.191406-12.347656 1.949219-3.335938 1.414062-7.5625-1.304688-10.308594-2.714843-2.742187-6.9375-3.320313-10.292968-1.40625-13.753906 7.832031-32.554688.996094-41.898438-15.199219-3.355468-5.75-5.132812-12.28125-5.160156-18.9375-.390625-10.019531 4.550781-19.5 12.984375-24.925781 3.285156-1.953125 4.867187-5.855469 3.875-9.546875-.992187-3.6875-4.320313-6.269531-8.140625-6.316406-17.207031-1.835938-29.875-16.957032-28.671875-34.21875-1.132813-17.222656 11.554687-32.261719 28.722656-34.046875zm0 0" fill="#428dff"/><path d="m204.8125 341.335938c75.40625 0 136.53125-61.128907 136.53125-136.535157s-61.125-136.53125-136.53125-136.53125-136.535156 61.125-136.535156 136.53125c.089844 75.371094 61.167968 136.445313 136.535156 136.535157zm0-256c65.980469 0 119.464844 53.484374 119.464844 119.464843s-53.484375 119.46875-119.464844 119.46875-119.46875-53.488281-119.46875-119.46875c.070312-65.949219 53.519531-119.394531 119.46875-119.464843zm0 0" fill="#428dff"/><path d="m196.277344 298.667969c0 4.714843 3.820312 8.535156 8.535156 8.535156 56.527344-.0625 102.339844-45.871094 102.398438-102.402344 0-4.710937-3.820313-8.53125-8.53125-8.53125-4.714844 0-8.535157 3.820313-8.535157 8.53125-.050781 47.109375-38.226562 85.28125-85.332031 85.335938-4.714844 0-8.535156 3.820312-8.535156 8.53125zm0 0" fill="#428dff"/><path d="m204.8125 119.46875c4.710938 0 8.53125-3.820312 8.53125-8.535156 0-4.710938-3.820312-8.53125-8.53125-8.53125-56.527344.058594-102.339844 45.871094-102.402344 102.398437 0 4.714844 3.824219 8.535157 8.535156 8.535157 4.710938 0 8.535157-3.820313 8.535157-8.535157.050781-47.105469 38.226562-85.28125 85.332031-85.332031zm0 0" fill="#428dff"/><path d="m213.34375 145.070312c-.042969-.324218-.105469-.644531-.195312-.957031-.085938-1.167969-.460938-2.292969-1.089844-3.277343-.121094-.292969-.261719-.578126-.421875-.851563-.117188-.164063-.304688-.242187-.433594-.394531-.398437-.433594-.835937-.824219-1.3125-1.167969-1.328125-.957031-2.886719-1.546875-4.515625-1.707031-.195312 0-.367188-.113282-.5625-.113282-.3125.046876-.625.109376-.929688.191407-.582031.054687-1.152343.171875-1.707031.347656-.546875.195313-1.070312.449219-1.5625.75-.292969.121094-.578125.261719-.851562.417969l-34.136719 25.601562c-2.4375 1.828125-3.714844 4.820313-3.351562 7.847656.367187 3.027344 2.316406 5.628907 5.121093 6.828126 2.804688 1.195312 6.035157.804687 8.472657-1.023438l20.410156-15.425781v93.863281h-17.066406c-4.710938 0-8.53125 3.820312-8.53125 8.535156 0 4.710938 3.820312 8.535156 8.53125 8.535156h51.199218c4.714844 0 8.535156-3.824218 8.535156-8.535156 0-4.714844-3.820312-8.535156-8.535156-8.535156h-17.066406zm0 0" fill="#428dff"/></svg>